<?xml version="1.0" encoding="utf-8"?>
<!-- Generator: Adobe Illustrator 25.0.0, SVG Export Plug-In . SVG Version: 6.00 Build 0)  -->
<svg version="1.1" id="Layer_1" xmlns="http://www.w3.org/2000/svg" xmlns:xlink="http://www.w3.org/1999/xlink" x="0px" y="0px"
	 viewBox="0 0 500 500" style="enable-background:new 0 0 500 500;" xml:space="preserve">
<style type="text/css">
	.st0{fill:#00005B;}
	.st1{fill:#9999FF;}
	.st2{fill-rule:evenodd;clip-rule:evenodd;fill:#9999FF;}
</style>
<g id="_4-2" transform="translate(3551.25 308)">
	<path id="_21" class="st0" d="M-3447.4-270.6h292.3c36.7,0,66.4,29.7,66.4,66.4V88.2c0,36.7-29.7,66.4-66.4,66.4h-292.3
		c-36.7,0-66.4-29.7-66.4-66.4v-292.3C-3513.8-240.9-3484.1-270.6-3447.4-270.6z"/>
	<path id="_41" class="st1" d="M-3374.3-81.6c8.9,30.7,14.8,51.6,17.6,62.7c2.8-11.1,8.7-32,17.6-62.7l0,0
		c10.8-36.5,16.8-57,18.1-61.4v-0.1l0-0.1c0.3-0.9,0.8-1.7,1.6-2.3c0.8-0.6,1.7-0.9,2.7-0.9h40.7c0.9,0,1.8,0.2,2.6,0.8
		c0.8,0.6,1.3,1.4,1.5,2.4l0,0.2l7.2,172c0.2,1.2-0.2,2.5-1.1,3.4c-0.9,0.8-2.1,1.3-3.3,1.2h-29.2c-1.1,0-2.2-0.3-3.1-1
		c-0.9-0.8-1.3-1.9-1.3-3.1c-1.2-58.9-1.7-102.9-1.5-132c-6,22.1-18.1,66.3-36.3,132.5l0,0.1l-0.1,0.1c-0.4,0.9-1,1.8-1.8,2.4
		c-0.8,0.6-1.9,0.9-2.9,0.9h-22.6c-1,0-2-0.3-2.9-0.9c-0.8-0.6-1.5-1.4-1.8-2.4l-0.1-0.1l0-0.1c-18.2-66.2-30.3-110.4-36.3-132.5
		c0.2,29.1-0.4,73.1-1.5,132c0,1.2-0.4,2.3-1.3,3.1c-0.9,0.7-2,1.1-3.1,1h-29.2c-1.2,0.1-2.4-0.4-3.3-1.2c-0.9-0.9-1.2-2.1-1.1-3.4
		l7.2-172l0-0.2c0.2-1,0.7-1.8,1.5-2.4c0.8-0.5,1.7-0.8,2.6-0.8h40.7c1,0,1.9,0.3,2.7,0.9c0.7,0.6,1.3,1.4,1.6,2.3l0,0.1v0.1
		C-3391.1-138.5-3385.1-118.1-3374.3-81.6L-3374.3-81.6z"/>
	<path id="_42" class="st2" d="M-3149.9,29l0.3-0.1l0.2-0.2c1.5-1.2,2.4-3,2.4-4.9V4.3c0-0.5-0.1-1-0.2-1.5
		c-0.2-0.7-0.6-1.3-1.2-1.7c-0.7-0.4-1.5-0.6-2.2-0.4c-0.5,0.1-0.9,0.3-1.3,0.5c-9.3,3.9-19.2,5.8-29.2,5.6c-12,0-20.6-3.2-26.3-9.1
		c-5.7-6.3-8.8-14.5-8.9-23h46.3c9.2,0.2,18.3-0.2,27.4-1.1c2.1-0.2,3.7-1.8,4-3.9c0.9-5.2,1.3-10.5,1.1-15.8
		c0.2-14.3-4.5-28.3-13.5-39.4c-9-11.5-22.8-17.1-40.8-17.1c-19,0-34.2,6.8-45.3,20.5c-11,13.6-16.4,30.4-16.4,50.3
		c0,19.2,5.2,35.4,15.6,48.4l0,0c10.8,13.1,27.6,19.4,49.8,19.4C-3175,36.5-3162,34.1-3149.9,29z M-3216.1-50.3
		c0.7-6.6,3.1-12.8,7-18.2c3.8-5.1,9.9-8,16.3-7.6c7.4,0,12.4,2.4,15.4,7c3.3,5,5,10.8,4.9,16.8c0,0.7,0,1.3,0,1.7
		c-0.6,0-1.3,0.1-2.1,0.1c-2.1,0.1-5.1,0.1-8.9,0.1H-3216.1z"/>
</g>
</svg>
